<?xml version="1.0" encoding="UTF-8" standalone="no"?>
<!-- Created with Inkscape (http://www.inkscape.org/) -->

<svg
   width="210mm"
   height="297mm"
   viewBox="0 0 210 297"
   version="1.1"
   id="svg5"
   inkscape:version="1.1 (c68e22c387, 2021-05-23)"
   sodipodi:docname="DemoGameVectoral.svg"
   xmlns:inkscape="http://www.inkscape.org/namespaces/inkscape"
   xmlns:sodipodi="http://sodipodi.sourceforge.net/DTD/sodipodi-0.dtd"
   xmlns="http://www.w3.org/2000/svg"
   xmlns:svg="http://www.w3.org/2000/svg">
  <sodipodi:namedview
     id="namedview7"
     pagecolor="#505050"
     bordercolor="#ffffff"
     borderopacity="1"
     inkscape:pageshadow="0"
     inkscape:pageopacity="0"
     inkscape:pagecheckerboard="1"
     inkscape:document-units="mm"
     showgrid="false"
     inkscape:zoom="0.38395764"
     inkscape:cx="-46.880172"
     inkscape:cy="657.62463"
     inkscape:window-width="1920"
     inkscape:window-height="1051"
     inkscape:window-x="-9"
     inkscape:window-y="-9"
     inkscape:window-maximized="1"
     inkscape:current-layer="layer1"
     showguides="true"
     inkscape:guide-bbox="true"
     inkscape:snap-smooth-nodes="true"
     inkscape:snap-intersection-paths="true"
     inkscape:object-paths="true">
    <sodipodi:guide
       position="91.477375,183.21317"
       orientation="0,-1"
       id="guide3005" />
    <sodipodi:guide
       position="91.477338,183.21318"
       orientation="1,0"
       id="guide3463" />
    <sodipodi:guide
       position="30.837006,161.42054"
       orientation="1,0"
       id="guide4191" />
  </sodipodi:namedview>
  <defs
     id="defs2" />
  <g
     inkscape:label="Layer 1"
     inkscape:groupmode="layer"
     id="layer1">
    <circle
       style="fill:none;fill-opacity:1;stroke:none;stroke-width:11.3386;stroke-linecap:round;stroke-linejoin:bevel;stroke-opacity:1;paint-order:markers stroke fill"
       id="path1988"
       cx="-71.321342"
       cy="64.430397"
       r="64"
       inkscape:export-filename="C:\Users\derin\Desktop\Stun.png"
       inkscape:export-xdpi="50.800003"
       inkscape:export-ydpi="50.800003" />
    <path
       sodipodi:type="star"
       style="fill:none;stroke:#a1a1a1;stroke-width:11.3386;stroke-linecap:round;stroke-linejoin:bevel;stroke-opacity:1;paint-order:markers stroke fill"
       id="path846"
       inkscape:flatsided="false"
       sodipodi:sides="5"
       sodipodi:cx="140.64052"
       sodipodi:cy="334.67233"
       sodipodi:r1="94.490005"
       sodipodi:r2="47.245003"
       sodipodi:arg1="0.51914611"
       sodipodi:arg2="1.1474646"
       inkscape:rounded="0"
       inkscape:randomized="0"
       d="m 222.68082,381.5525 -62.63204,-3.8057 -38.64211,49.43726 -15.73492,-60.74263 -58.958701,-21.47387 52.907319,-33.73531 2.203622,-62.70885 48.43345,39.89307 60.32062,-17.28233 -22.97381,58.39058 z"
       transform="matrix(0.26458333,0,0,0.26458333,-143.67633,-13.781902)"
       inkscape:transform-center-x="1.5725741"
       inkscape:transform-center-y="0.84174401"
       inkscape:export-filename="C:\Users\derin\Desktop\Stun.png"
       inkscape:export-xdpi="50.800003"
       inkscape:export-ydpi="50.800003" />
    <path
       sodipodi:type="star"
       style="fill:none;stroke:#a1a1a1;stroke-width:11.3386;stroke-linecap:round;stroke-linejoin:bevel;stroke-opacity:1;paint-order:markers stroke fill"
       id="path1654"
       inkscape:flatsided="false"
       sodipodi:sides="5"
       sodipodi:cx="140.64052"
       sodipodi:cy="334.67233"
       sodipodi:r1="94.490005"
       sodipodi:r2="47.245003"
       sodipodi:arg1="0.51914611"
       sodipodi:arg2="1.1474646"
       inkscape:rounded="0"
       inkscape:randomized="0"
       d="m 222.68082,381.5525 -62.63204,-3.8057 -38.64211,49.43726 -15.73492,-60.74263 -58.958701,-21.47387 52.907319,-33.73531 2.203622,-62.70885 48.43345,39.89307 60.32062,-17.28233 -22.97381,58.39058 z"
       transform="matrix(0.10117692,0.10403725,-0.10403725,0.10117692,-3.6411582,-1.2877145)"
       inkscape:transform-center-x="-1.0578567"
       inkscape:transform-center-y="0.26189485"
       inkscape:export-filename="C:\Users\derin\Desktop\Stun.png"
       inkscape:export-xdpi="50.800003"
       inkscape:export-ydpi="50.800003" />
    <path
       style="color:#000000;fill:none;stroke:#a1a1a1;stroke-width:1;stroke-linecap:round;stroke-linejoin:bevel;stroke-miterlimit:4;stroke-dasharray:none;stroke-opacity:1;paint-order:markers stroke fill"
       d="m -68.994168,21.482506 c -4.49548,-0.13146 -9.04802,0.15616 -13.55468,0.88672 -18.026672,2.92226 -32.837072,12.51745 -38.994142,25.68359 a 1.61492,1.61492 0 0 0 0.7793,2.14844 1.61492,1.61492 0 0 0 2.14648,-0.77929 c 5.56412,-11.89819 19.390112,-21.07571 36.585942,-23.86329 17.19582,-2.78757 35.1654,1.2506 47.22851,10.47852 a 1.61492,1.61492 0 0 0 2.26367,-0.30078 1.61492,1.61492 0 0 0 -0.30273,-2.26563 c -9.6924,-7.41439 -22.6659,-11.59388 -36.15235,-11.98828 z"
       id="path1678"
       inkscape:export-filename="C:\Users\derin\Desktop\Stun.png"
       inkscape:export-xdpi="50.800003"
       inkscape:export-ydpi="50.800003" />
    <path
       style="color:#000000;fill:none;stroke:#a1a1a1;stroke-width:1;stroke-linecap:round;stroke-linejoin:bevel;stroke-miterlimit:4;stroke-dasharray:none;stroke-opacity:1;paint-order:markers stroke fill"
       d="m -19.396508,62.718836 a 1.615,1.615 0 0 0 -1.78906,1.41797 c -1.41941,12.23167 -11.33199,23.31374 -26.62695,29.16797 -15.29497,5.85423 -33.7357,5.54794 -48.64454,-0.80078 a 1.615,1.615 0 0 0 -2.11718,0.85351 1.615,1.615 0 0 0 0.85156,2.11719 c 15.75107,6.707384 34.93112,7.022784 51.06445,0.84766 16.13333,-6.17512 27.0885,-18.1005 28.67969,-31.8125 a 1.615,1.615 0 0 0 -1.41797,-1.79102 z"
       id="path1862"
       inkscape:export-filename="C:\Users\derin\Desktop\Stun.png"
       inkscape:export-xdpi="50.800003"
       inkscape:export-ydpi="50.800003" />
    <circle
       style="fill:none;fill-opacity:1;stroke:none;stroke-width:11.3386;stroke-linecap:round;stroke-linejoin:bevel;stroke-opacity:1;paint-order:markers stroke fill"
       id="circle2340"
       cx="-211.89676"
       cy="227.05685"
       r="64"
       inkscape:export-filename="C:\Users\derin\Desktop\BoostFiller.png"
       inkscape:export-xdpi="50.800003"
       inkscape:export-ydpi="50.800003" />
    <path
       sodipodi:type="star"
       style="fill:#000000;fill-opacity:1;stroke:#a1a1a1;stroke-width:11.3386;stroke-linecap:round;stroke-linejoin:bevel;stroke-opacity:1;paint-order:markers stroke fill"
       id="path2342"
       inkscape:flatsided="false"
       sodipodi:sides="5"
       sodipodi:cx="140.64052"
       sodipodi:cy="334.67233"
       sodipodi:r1="94.490005"
       sodipodi:r2="47.245003"
       sodipodi:arg1="0.51914611"
       sodipodi:arg2="1.1474646"
       inkscape:rounded="0"
       inkscape:randomized="0"
       d="m 222.68082,381.5525 -62.63204,-3.8057 -38.64211,49.43726 -15.73492,-60.74263 -58.958701,-21.47387 52.907319,-33.73531 2.203622,-62.70885 48.43345,39.89307 60.32062,-17.28233 -22.97381,58.39058 z"
       transform="matrix(0.26458333,0,0,0.26458333,-288.38631,-13.781902)"
       inkscape:transform-center-x="1.5725741"
       inkscape:transform-center-y="0.84174401"
       inkscape:export-filename="C:\Users\derin\Desktop\Stunfillder.png"
       inkscape:export-xdpi="50.800003"
       inkscape:export-ydpi="50.800003" />
    <path
       sodipodi:type="star"
       style="fill:#000000;fill-opacity:1;stroke:#a1a1a1;stroke-width:11.3386;stroke-linecap:round;stroke-linejoin:bevel;stroke-opacity:1;paint-order:markers stroke fill"
       id="path2344"
       inkscape:flatsided="false"
       sodipodi:sides="5"
       sodipodi:cx="140.64052"
       sodipodi:cy="334.67233"
       sodipodi:r1="94.490005"
       sodipodi:r2="47.245003"
       sodipodi:arg1="0.51914611"
       sodipodi:arg2="1.1474646"
       inkscape:rounded="0"
       inkscape:randomized="0"
       d="m 222.68082,381.5525 -62.63204,-3.8057 -38.64211,49.43726 -15.73492,-60.74263 -58.958701,-21.47387 52.907319,-33.73531 2.203622,-62.70885 48.43345,39.89307 60.32062,-17.28233 -22.97381,58.39058 z"
       transform="matrix(0.10117692,0.10403725,-0.10403725,0.10117692,-148.35114,-1.2877145)"
       inkscape:transform-center-x="-1.0578567"
       inkscape:transform-center-y="0.26189485"
       inkscape:export-filename="C:\Users\derin\Desktop\Stunfillder.png"
       inkscape:export-xdpi="50.800003"
       inkscape:export-ydpi="50.800003" />
    <path
       style="color:#000000;fill:#000000;fill-opacity:1;stroke:#a1a1a1;stroke-width:1;stroke-linecap:round;stroke-linejoin:bevel;stroke-miterlimit:4;stroke-dasharray:none;stroke-opacity:1;paint-order:markers stroke fill"
       d="m -213.70414,21.482506 c -4.49549,-0.13146 -9.04803,0.15616 -13.55469,0.88672 -18.02667,2.92226 -32.83707,12.51745 -38.99414,25.68359 a 1.61492,1.61492 0 0 0 0.7793,2.14844 1.61492,1.61492 0 0 0 2.14648,-0.77929 c 5.56412,-11.89819 19.39011,-21.07571 36.58594,-23.86329 17.19583,-2.78757 35.1654,1.2506 47.22851,10.47852 a 1.61492,1.61492 0 0 0 2.26367,-0.30078 1.61492,1.61492 0 0 0 -0.30273,-2.26563 c -9.6924,-7.41439 -22.66589,-11.59388 -36.15234,-11.98828 z"
       id="path2346"
       inkscape:export-filename="C:\Users\derin\Desktop\Stunfillder.png"
       inkscape:export-xdpi="50.800003"
       inkscape:export-ydpi="50.800003" />
    <path
       style="color:#000000;fill:#000000;fill-opacity:1;stroke:#a1a1a1;stroke-width:1;stroke-linecap:round;stroke-linejoin:bevel;stroke-miterlimit:4;stroke-dasharray:none;stroke-opacity:1;paint-order:markers stroke fill"
       d="m -164.10649,62.718836 a 1.615,1.615 0 0 0 -1.78906,1.41797 c -1.41941,12.23167 -11.33199,23.31374 -26.62695,29.16797 -15.29496,5.85423 -33.7357,5.54794 -48.64454,-0.80078 a 1.615,1.615 0 0 0 -2.11718,0.85351 1.615,1.615 0 0 0 0.85156,2.11719 c 15.75107,6.707384 34.93113,7.022784 51.06445,0.84766 16.13333,-6.17512 27.0885,-18.1005 28.67969,-31.8125 a 1.615,1.615 0 0 0 -1.41797,-1.79102 z"
       id="path2348"
       inkscape:export-filename="C:\Users\derin\Desktop\Stunfillder.png"
       inkscape:export-xdpi="50.800003"
       inkscape:export-ydpi="50.800003" />
    <rect
       style="opacity:0.156658;fill:#666666;fill-opacity:1;stroke:#a1a1a1;stroke-width:1;stroke-linecap:round;stroke-linejoin:bevel;stroke-miterlimit:4;stroke-dasharray:none;stroke-opacity:1;paint-order:markers stroke fill"
       id="rect2432"
       width="47.331501"
       height="80.20842"
       x="-229.49779"
       y="185.38754"
       rx="19.626987"
       ry="27.424328"
       inkscape:export-filename="C:\Users\derin\Desktop\BoostFiller.png"
       inkscape:export-xdpi="50.800003"
       inkscape:export-ydpi="50.800003" />
    <rect
       style="fill:#666666;fill-opacity:1;stroke:#c6c6c6;stroke-width:1;stroke-linecap:round;stroke-linejoin:bevel;stroke-miterlimit:4;stroke-dasharray:none;stroke-opacity:1;paint-order:markers stroke fill"
       id="rect2456"
       width="38.892704"
       height="4.8181725"
       x="-254.63084"
       y="207.19737"
       rx="1.5047766"
       ry="2.4090862"
       inkscape:export-filename="C:\Users\derin\Desktop\BoostFiller.png"
       inkscape:export-xdpi="50.800003"
       inkscape:export-ydpi="50.800003" />
    <rect
       style="fill:#666666;fill-opacity:1;stroke:#c6c6c6;stroke-width:1;stroke-linecap:round;stroke-linejoin:bevel;stroke-miterlimit:4;stroke-dasharray:none;stroke-opacity:1;paint-order:markers stroke fill"
       id="rect2538"
       width="57.002029"
       height="4.8454933"
       x="-272.74014"
       y="215.2749"
       rx="2.2054346"
       ry="2.4227467"
       inkscape:export-filename="C:\Users\derin\Desktop\BoostFiller.png"
       inkscape:export-xdpi="50.800003"
       inkscape:export-ydpi="50.800003" />
    <rect
       style="fill:#666666;fill-opacity:1;stroke:#c6c6c6;stroke-width:1;stroke-linecap:round;stroke-linejoin:bevel;stroke-miterlimit:4;stroke-dasharray:none;stroke-opacity:1;paint-order:markers stroke fill"
       id="rect2540"
       width="31.801325"
       height="4.8454933"
       x="-247.53943"
       y="224.65517"
       rx="1.2304077"
       ry="2.4227467"
       inkscape:export-filename="C:\Users\derin\Desktop\BoostFiller.png"
       inkscape:export-xdpi="50.800003"
       inkscape:export-ydpi="50.800003" />
    <rect
       style="opacity:0.344648;fill:#666666;fill-opacity:1;stroke:#a1a1a1;stroke-width:1;stroke-linecap:round;stroke-linejoin:bevel;stroke-miterlimit:4;stroke-dasharray:none;stroke-opacity:1;paint-order:markers stroke fill"
       id="rect2644"
       width="47.331501"
       height="80.20842"
       x="-218.72775"
       y="185.38754"
       rx="19.626987"
       ry="27.424328"
       inkscape:export-filename="C:\Users\derin\Desktop\BoostFiller.png"
       inkscape:export-xdpi="50.800003"
       inkscape:export-ydpi="50.800003" />
    <rect
       style="fill:#666666;fill-opacity:1;stroke:#a1a1a1;stroke-width:3;stroke-linecap:round;stroke-linejoin:bevel;stroke-miterlimit:4;stroke-dasharray:none;stroke-opacity:1;paint-order:markers stroke fill"
       id="rect2646"
       width="47.331501"
       height="80.20842"
       x="-209.79996"
       y="185.38754"
       rx="19.626987"
       ry="27.424328"
       inkscape:export-filename="C:\Users\derin\Desktop\BoostFiller.png"
       inkscape:export-xdpi="50.800003"
       inkscape:export-ydpi="50.800003" />
    <circle
       style="fill:none;fill-opacity:1;stroke:none;stroke-width:11.3386;stroke-linecap:round;stroke-linejoin:bevel;stroke-opacity:1;paint-order:markers stroke fill"
       id="circle2750"
       cx="-216.03133"
       cy="64.430397"
       r="64"
       inkscape:export-filename="C:\Users\derin\Desktop\Stunfillder.png"
       inkscape:export-xdpi="50.800003"
       inkscape:export-ydpi="50.800003" />
    <rect
       style="fill:#666666;fill-opacity:1;stroke:#c6c6c6;stroke-width:2.58466;stroke-linecap:round;stroke-linejoin:bevel;stroke-miterlimit:4;stroke-dasharray:none;stroke-opacity:1;paint-order:markers stroke fill"
       id="rect1022"
       width="28.002539"
       height="3.6295407"
       x="-102.96564"
       y="206.9171"
       rx="1.0834311"
       ry="1.8147703"
       inkscape:export-filename="C:\Users\derin\Desktop\Settings.png"
       inkscape:export-xdpi="105.61346"
       inkscape:export-ydpi="105.61346" />
    <rect
       style="fill:#666666;fill-opacity:1;stroke:#c6c6c6;stroke-width:2.58466;stroke-linecap:round;stroke-linejoin:bevel;stroke-miterlimit:4;stroke-dasharray:none;stroke-opacity:1;paint-order:markers stroke fill"
       id="rect1024"
       width="28.002539"
       height="3.6295407"
       x="-102.96564"
       y="214.9343"
       rx="1.0834311"
       ry="1.8147703"
       inkscape:export-filename="C:\Users\derin\Desktop\Settings.png"
       inkscape:export-xdpi="105.61346"
       inkscape:export-ydpi="105.61346" />
    <rect
       style="fill:#666666;fill-opacity:1;stroke:#c6c6c6;stroke-width:2.31216;stroke-linecap:round;stroke-linejoin:bevel;stroke-miterlimit:4;stroke-dasharray:none;stroke-opacity:1;paint-order:markers stroke fill"
       id="rect1026"
       width="20.844265"
       height="3.90204"
       x="-103.10189"
       y="222.90431"
       rx="0.80647421"
       ry="1.95102"
       inkscape:export-filename="C:\Users\derin\Desktop\Settings.png"
       inkscape:export-xdpi="105.61346"
       inkscape:export-ydpi="105.61346" />
    <ellipse
       style="fill:#666666;stroke:#c6c6c6;stroke-width:2.07954;stroke-linecap:round;stroke-linejoin:bevel;stroke-miterlimit:4;stroke-dasharray:none;paint-order:markers stroke fill"
       id="path1050"
       cx="-76.444565"
       cy="224.69012"
       rx="2.411778"
       ry="2.5379567"
       inkscape:export-filename="C:\Users\derin\Desktop\Settings.png"
       inkscape:export-xdpi="105.61346"
       inkscape:export-ydpi="105.61346" />
    <path
       style="color:#000000;display:inline;fill:#ffffff;stroke-width:1;stroke-linecap:round;stroke-linejoin:bevel;-inkscape-stroke:none;paint-order:fill markers stroke"
       d="m 42.408172,247.82651 c -0.43736,7.9e-4 -0.80736,0.0679 -1.04696,0.26561 -0.99036,0.82554 -2.02872,1.59528 -3.10369,2.31252 -2.79644,1.88828 -5.71945,3.34086 -8.82944,4.4204 -4.54296,1.63384 -9.30406,2.48493 -13.822931,2.51975 -0.27544,0 -0.49909,0.22247 -0.50022,0.49764 -0.002,-0.27466 -0.22411,-0.49712 -0.4992,-0.49713 -4.51383,-0.0348 -9.2695597,-0.88377 -13.80793972,-2.51405 -3.11886998,-1.08119 -6.04959048,-2.53757 -8.85321048,-4.43177 -1.07189,-0.71563 -2.1082298,-1.48299 -3.0959298,-2.30632 -0.63892,-0.52748 -2.20715,-0.12758 -3.49695,-0.008 -0.0113,0.0533 -0.0206,0.10445 -0.0326,0.15865 0,0 0,5.3e-4 0,5.3e-4 -0.0339,0.15109 -0.0708,0.30493 -0.10903,0.46044 -0.0765,0.31113 -0.15846,0.62772 -0.23358,0.93741 -0.0375,0.15477 -0.0729,0.30765 -0.10542,0.45733 -0.14623,0.67379 -0.22559,1.27961 -0.0935,1.67432 0.004,0.0129 0.0108,0.0234 0.0155,0.0357 0.0438,0.11451 0.10503,0.21112 0.19172,0.28267 0.64757,0.53249 1.32484,1.01508 2.02727,1.45469 2.1248,1.31761 4.5700598,2.26831 7.1711298,2.95589 6.35856048,1.62331 13.6447105,1.53098 20.4220102,1.84226 0,0 5.3e-4,0 5.3e-4,0 l 0.49971,-0.49971 0.49971,0.4992 c 6.771591,-0.31103 14.050651,-0.21915 20.405481,-1.83813 2.59433,-0.68449 5.03422,-1.63018 7.15615,-2.94039 0.69569,-0.43362 1.36656,-0.90971 2.00866,-1.43402 0.0165,-0.0137 0.0336,-0.0266 0.0501,-0.0403 0.032,-0.0264 0.0611,-0.0556 0.0868,-0.0884 0.10348,-0.13063 0.15925,-0.30924 0.17932,-0.52348 0.005,-0.0535 0.008,-0.10923 0.009,-0.16692 8e-4,-0.0577 -7.9e-4,-0.11724 -0.004,-0.1788 -0.009,-0.18471 -0.0344,-0.38576 -0.0708,-0.59789 -0.0485,-0.28286 -0.11663,-0.5855 -0.19172,-0.89504 -0.0375,-0.15476 -0.0768,-0.31149 -0.11627,-0.46819 -0.0931,-0.36957 -0.18467,-0.73794 -0.2589,-1.08882 -0.80612,-0.0747 -1.72156,-0.25898 -2.4505,-0.25786 z"
       id="path1492"
       inkscape:export-filename="C:\Users\derin\Desktop\WeaponIndic.png"
       inkscape:export-xdpi="90.7136"
       inkscape:export-ydpi="90.7136" />
    <path
       style="color:#000000;display:inline;fill:#ffffff;stroke-width:1;stroke-linecap:round;stroke-linejoin:bevel;-inkscape-stroke:none;paint-order:fill markers stroke"
       d="m -15.570719,245.95117 c -0.30766,0.007 -0.66557,0.0641 -1.04645,0.14418 -0.0684,0.66926 -0.0628,1.26546 0.19017,1.61385 0.0238,0.0327 0.0493,0.0627 0.0775,0.0909 0.22558,0.22559 0.59894,0.30348 1.04748,0.30593 0.20522,0.001 0.4276,-0.0148 0.65733,-0.0383 0.01,-0.045 0.0186,-0.09 0.0274,-0.13436 0.009,-0.0437 0.0195,-0.0894 0.0274,-0.13229 0.0526,-0.28738 0.0869,-0.55645 0.0904,-0.79478 0.002,-0.11911 -0.004,-0.23017 -0.0196,-0.33228 -0.0305,-0.20422 -0.0981,-0.3715 -0.21549,-0.48886 -0.0293,-0.0293 -0.0614,-0.0557 -0.0966,-0.0791 0,0 -5.3e-4,0 -5.3e-4,0 -0.0123,-0.008 -0.0268,-0.0139 -0.0398,-0.0212 -0.0617,-0.0351 -0.12947,-0.0647 -0.20567,-0.0853 -0.14224,-0.0383 -0.30892,-0.0526 -0.49352,-0.0486 z"
       id="path1490"
       inkscape:export-filename="C:\Users\derin\Desktop\WeaponIndic.png"
       inkscape:export-xdpi="90.7136"
       inkscape:export-ydpi="90.7136" />
    <path
       style="color:#000000;display:inline;fill:#ffffff;stroke-width:1;stroke-linecap:round;stroke-linejoin:bevel;-inkscape-stroke:none;paint-order:fill markers stroke"
       d="m 45.766622,245.95017 c -0.11908,-0.002 -0.23017,0.004 -0.33228,0.0196 -0.20422,0.0305 -0.37151,0.0981 -0.48886,0.21549 -0.0293,0.0293 -0.0557,0.0614 -0.0791,0.0966 0,0 0,5.3e-4 0,5.3e-4 -0.008,0.0123 -0.0139,0.0268 -0.0212,0.0398 -0.0351,0.0617 -0.0652,0.12947 -0.0858,0.20567 -0.10223,0.37929 -0.0325,0.93056 0.0956,1.53996 0.66927,0.0684 1.26598,0.0628 1.61437,-0.19017 0.0325,-0.024 0.0622,-0.0498 0.0904,-0.078 0.22559,-0.22558 0.30347,-0.59894 0.30592,-1.04748 l 5.3e-4,5.3e-4 c 10e-4,-0.20522 -0.0148,-0.42759 -0.0382,-0.65733 -0.045,-0.01 -0.09,-0.0186 -0.13436,-0.0274 -0.0437,-0.009 -0.0894,-0.0195 -0.13229,-0.0274 -0.28739,-0.0526 -0.55645,-0.0869 -0.79478,-0.0904 z"
       id="path1488"
       inkscape:export-filename="C:\Users\derin\Desktop\WeaponIndic.png"
       inkscape:export-xdpi="90.7136"
       inkscape:export-ydpi="90.7136" />
    <path
       id="path1486"
       style="color:#000000;display:inline;fill:#ffffff;stroke-width:1;stroke-linecap:round;stroke-linejoin:bevel;-inkscape-stroke:none;paint-order:fill markers stroke"
       d="m 14.604641,176.34503 c -0.1678,0.008 -0.33352,0.0174 -0.50023,0.0264 v 0.0248 c -0.28838,0.006 -0.57783,0.0159 -0.86816,0.0284 -2.53419,0.1712 -4.9421897,0.49124 -7.2434897,0.9834 -5.39220002,1.22574 -10.7287595,3.54957 -15.2207705,6.93188 -0.13283,0.10073 -0.26509,0.20408 -0.3974,0.30696 -0.0725,0.0562 -0.14603,0.11114 -0.21807,0.16795 -0.003,0.002 -0.007,0.006 -0.0103,0.008 -0.0957,0.0755 -0.1908398,0.15383 -0.2862898,0.23048 -0.14365,0.11589 -0.28774,0.23115 -0.42943,0.34933 -0.47955,0.39614 -0.94975,0.80339 -1.40973,1.22163 -0.22631,0.20576 -0.45037,0.4143 -0.6718,0.62529 -0.004,0.003 -0.007,0.007 -0.0109,0.0103 -0.22495,0.2145 -0.44732,0.43183 -0.66714,0.65164 -0.21981,0.21981 -0.43664,0.44216 -0.65112,0.66715 -0.21155,0.22187 -0.42051,0.44605 -0.62684,0.67282 -0.003,0.003 -0.006,0.007 -0.009,0.009 -0.41825,0.45999 -0.8255,0.93017 -1.22163,1.40973 -0.12154,0.14573 -0.24001,0.29402 -0.35915,0.44184 -0.0725,0.0903 -0.14664,0.18025 -0.21807,0.27078 -0.004,0.005 -0.008,0.009 -0.0114,0.014 -0.0697,0.0884 -0.13643,0.17747 -0.20516,0.26613 -0.0901,0.11615 -0.18084,0.23175 -0.26923,0.3483 -3.37899,4.48747 -5.7015,9.81806 -6.92826,15.20476 -0.49306,2.3012 -0.8146,4.70937 -0.9865,7.24348 -0.013,0.29601 -0.0234,0.59122 -0.0295,0.88522 h -0.0243 c -0.009,0.16661 -0.0187,0.33252 -0.0264,0.50023 h 0.001 c 0,0.27614 0.22357,0.49971 0.49971,0.49971 h 5.3e-4 l 0.49971,-0.49971 v -5.3e-4 -5.3e-4 c 0.0269,-3.48491 0.56362,-7.12247 1.59267,-10.6779 1.16783,-4.25387 2.99873,-8.13978 5.64927,-11.80962 0.002,-0.003 0.005,-0.007 0.007,-0.0103 0.47641,-0.66607 0.97635,-1.3144 1.49861,-1.94355 0.0139,-0.0168 0.0274,-0.034 0.0413,-0.0507 v -5.3e-4 c 0.0368,-0.0446 0.0879,-0.0779 0.15245,-0.1018 0.0585,-0.0217 0.13022,-0.0341 0.20929,-0.0403 0.008,-5.3e-4 0.0141,-0.003 0.0222,-0.003 0.0597,-0.004 0.12454,-0.003 0.19431,0.002 0.0696,0.004 0.14354,0.0119 0.22221,0.0233 0.39349,0.0569 0.89553,0.19985 1.45262,0.39481 0.44535,0.15585 0.92582,0.34512 1.41387,0.55035 1.22067,0.5133 2.4887398,1.12682 3.3749898,1.57096 0.70891,0.35528 1.17357,0.60204 1.17357,0.60204 0,0 -0.0619,-0.11618 -0.16795,-0.32092 -0.10605,-0.20462 -0.25655,-0.49791 -0.43408,-0.85214 v -5.3e-4 c -0.26644,-0.53162 -0.59433,-1.20085 -0.92449,-1.91461 -0.33016,-0.71379 -0.66316,-1.47236 -0.94052,-2.18281 v -5.3e-4 c -0.13861,-0.35512 -0.26333,-0.69853 -0.3669,-1.01803 -0.0691,-0.2131 -0.12865,-0.41543 -0.17673,-0.6041 -0.0481,-0.18866 -0.0847,-0.36353 -0.1074898,-0.52089 -0.0569,-0.39341 -0.0281,-0.67842 0.1204098,-0.80099 0.67785,-0.56494 1.37938,-1.10232 2.10013,-1.61386 3.644651,-2.61571 7.50290048,-4.42753 11.7238305,-5.58518 3.55283,-1.02739 7.1869497,-1.5633 10.6691197,-1.59009 l 0.50022,-0.49971 c 0,-0.27614 -0.22408,-0.50022 -0.50022,-0.50022 z m 1.00046,0 c -0.27614,0 -0.49971,0.22358 -0.49971,0.49971 v 5.3e-4 l 0.49971,0.49971 h 5.3e-4 5.2e-4 c 3.484911,0.0269 7.122471,0.56362 10.677901,1.59267 4.25387,1.16783 8.13978,2.99874 11.80962,5.64927 0.003,0.002 0.007,0.005 0.0103,0.007 0.66607,0.47642 1.3144,0.97635 1.94355,1.49862 0.0168,0.0139 0.0339,0.0274 0.0506,0.0413 h 5.3e-4 c 0.0446,0.0368 0.0779,0.0879 0.1018,0.15245 0.0217,0.0585 0.0341,0.13021 0.0403,0.20929 5.3e-4,0.008 0.003,0.0141 0.003,0.0222 0.003,0.0598 0.003,0.12452 -0.002,0.19431 -0.004,0.0696 -0.0119,0.14353 -0.0233,0.2222 -0.0569,0.3935 -0.19985,0.89553 -0.39481,1.45263 -0.15585,0.44534 -0.34512,0.92581 -0.55035,1.41387 -0.5133,1.22066 -1.12681,2.48873 -1.57096,3.37499 -0.35528,0.70891 -0.60204,1.17357 -0.60203,1.17357 0,0 0.11618,-0.0619 0.32091,-0.16795 0.20462,-0.10605 0.49791,-0.25655 0.85214,-0.43408 h 5.3e-4 c 0.53163,-0.26643 1.20085,-0.59434 1.91461,-0.9245 0.71379,-0.33016 1.47237,-0.66316 2.18281,-0.94051 h 5.3e-4 c 0.35513,-0.13861 0.69852,-0.26333 1.01803,-0.3669 0.2131,-0.0691 0.41543,-0.12865 0.6041,-0.17673 0.18866,-0.0481 0.36353,-0.0847 0.5209,-0.10749 0.3934,-0.0569 0.67841,-0.0281 0.80098,0.12041 0.56494,0.67784 1.10232,1.37937 1.61386,2.10013 2.61571,3.64464 4.42752,7.50289 5.58518,11.72383 1.02739,3.55282 1.56331,7.18694 1.59009,10.66911 l 0.49919,0.50023 -0.49971,0.49972 v 5.3e-4 5.3e-4 c -0.0269,3.48491 -0.5631,7.12247 -1.59215,10.6779 -1.16783,4.25387 -2.99924,8.13977 -5.64978,11.80961 -0.002,0.003 -0.005,0.006 -0.007,0.0103 -0.4764,0.66607 -0.97636,1.31439 -1.49862,1.94355 -0.0139,0.0168 -0.0269,0.0345 -0.0408,0.0512 v 5.3e-4 c -0.0371,0.0442 -0.0878,0.0779 -0.15245,0.10181 -0.0585,0.0217 -0.13021,0.0342 -0.20929,0.0403 -0.008,7.9e-4 -0.0141,0.003 -0.0222,0.003 -0.0598,0.004 -0.1245,0.003 -0.1943,-0.002 -0.0696,-0.004 -0.14356,-0.0123 -0.22221,-0.0238 -0.39349,-0.0569 -0.89552,-0.19985 -1.45262,-0.39481 -0.44533,-0.15587 -0.92582,-0.34513 -1.41387,-0.55035 -1.22066,-0.51331 -2.48873,-1.12683 -3.37499,-1.57097 -0.70891,-0.35528 -1.17357,-0.60203 -1.17357,-0.60203 0,0 0.0619,0.11619 0.16795,0.32091 0.10605,0.20462 0.25656,0.49792 0.43408,0.85215 v 0.001 c 0.26643,0.53163 0.59432,1.20083 0.92449,1.91461 0.33016,0.71377 0.66317,1.47236 0.94051,2.18281 v 5.3e-4 c 0.13862,0.35512 0.26334,0.69851 0.3669,1.01802 0.0691,0.21311 0.12864,0.41543 0.17674,0.6041 0.0481,0.18866 0.0847,0.36353 0.10749,0.5209 0.0569,0.3934 0.0281,0.67841 -0.12041,0.80098 -0.67782,0.56497 -1.37937,1.10233 -2.10013,1.61386 -3.64464,2.61571 -7.5029,4.42754 -11.72383,5.58519 -3.55283,1.02739 -7.18695,1.56329 -10.669121,1.59008 l -0.50023,0.49971 c 0,0.27614 0.22409,0.50023 0.50023,0.50023 0.16781,-0.008 0.33352,-0.0179 0.50023,-0.0269 v -0.0248 c 0.288381,-0.006 0.577841,-0.0154 0.868161,-0.0279 2.5342,-0.17119 4.94219,-0.49123 7.24349,-0.9834 5.39219,-1.22573 10.72878,-3.54955 15.22077,-6.93188 0.13284,-0.10071 0.26503,-0.20414 0.3974,-0.30696 0.0725,-0.0562 0.14608,-0.11109 0.21807,-0.16795 0.003,-0.003 0.007,-0.006 0.01,-0.009 0.0957,-0.0755 0.19083,-0.15383 0.28629,-0.23047 0.14362,-0.11591 0.28769,-0.2307 0.42943,-0.34882 0.47957,-0.39613 0.94975,-0.8039 1.40973,-1.22215 0.22628,-0.20578 0.45035,-0.41379 0.67179,-0.62476 0.004,-0.003 0.007,-0.007 0.0109,-0.0109 0.22468,-0.21478 0.44784,-0.43183 0.66766,-0.65164 0.2198,-0.21982 0.43655,-0.44227 0.65112,-0.66715 0.21176,-0.22167 0.42047,-0.44608 0.62684,-0.67282 0.003,-0.003 0.006,-0.007 0.009,-0.009 0.41826,-0.45998 0.82551,-0.93018 1.22163,-1.40974 0.12155,-0.14573 0.24001,-0.29399 0.35915,-0.44183 0.0725,-0.0903 0.14666,-0.18027 0.21808,-0.27078 0.004,-0.005 0.008,-0.009 0.0114,-0.0139 0.0697,-0.0884 0.13643,-0.17748 0.20515,-0.26614 0.0901,-0.11613 0.18083,-0.23176 0.26923,-0.3483 3.379,-4.48747 5.7015,-9.81807 6.92826,-15.20475 0.49305,-2.30122 0.81461,-4.70936 0.98651,-7.24349 0.013,-0.296 0.0235,-0.59122 0.0294,-0.88522 h 0.0243 c 0.009,-0.1666 0.0187,-0.33252 0.0264,-0.50023 l -5.3e-4,0.001 c 0,-0.27614 -0.22357,-0.49971 -0.49971,-0.49971 0.2759,-2.6e-4 0.49971,-0.22426 0.49971,-0.50022 -0.008,-0.16781 -0.0174,-0.33352 -0.0264,-0.50023 h -0.0248 c -0.006,-0.28839 -0.0159,-0.57784 -0.0284,-0.86817 -0.17121,-2.53416 -0.49125,-4.94219 -0.98341,-7.24348 -1.22573,-5.39221 -3.54955,-10.72877 -6.93187,-15.22078 -0.10073,-0.13283 -0.20408,-0.26508 -0.30696,-0.39739 -0.0562,-0.0725 -0.11114,-0.14604 -0.16795,-0.21807 -0.003,-0.003 -0.006,-0.007 -0.008,-0.0104 -0.0755,-0.0957 -0.15383,-0.19083 -0.23048,-0.28629 -0.11589,-0.14364 -0.23116,-0.28775 -0.34933,-0.42943 -0.39614,-0.47955 -0.80338,-0.94974 -1.22163,-1.40973 -0.20576,-0.22631 -0.4143,-0.45038 -0.62528,-0.6718 -0.003,-0.004 -0.007,-0.007 -0.0103,-0.0108 -0.21451,-0.22496 -0.43183,-0.44734 -0.65164,-0.66715 -0.21981,-0.21981 -0.44219,-0.4366 -0.66714,-0.65112 -0.22187,-0.21157 -0.44606,-0.42051 -0.67283,-0.62684 -0.003,-0.003 -0.006,-0.006 -0.009,-0.009 -0.45999,-0.41825 -0.93018,-0.8255 -1.40973,-1.22163 -0.14573,-0.12155 -0.29403,-0.24001 -0.44184,-0.35915 -0.0903,-0.0725 -0.18024,-0.14664 -0.27078,-0.21808 -0.005,-0.004 -0.009,-0.008 -0.014,-0.0114 -0.0884,-0.0697 -0.17748,-0.13643 -0.26614,-0.20516 -0.11614,-0.09 -0.23175,-0.18085 -0.3483,-0.26923 -4.48747,-3.37899 -9.81805,-5.7015 -15.20475,-6.92826 -2.30121,-0.49307 -4.70938,-0.81461 -7.24349,-0.98651 -0.296,-0.013 -0.59122,-0.0235 -0.885221,-0.0295 v -0.0243 c -0.16661,-0.009 -0.33251,-0.0187 -0.50022,-0.0264 z m -39.99911,40.00066 c -0.27614,0 -0.50023,0.22409 -0.50023,0.50023 0.008,0.16781 0.0174,0.33352 0.0264,0.50023 h 0.0248 c 0.006,0.28839 0.0159,0.57783 0.0284,0.86816 0.1712,2.53419 0.49125,4.94219 0.98341,7.24349 1.22574,5.39219 3.54956,10.72877 6.93188,15.22078 0.10072,0.13283 0.20363,0.26502 0.30644,0.39739 0.0562,0.0725 0.11108,0.14607 0.16795,0.21807 0.003,0.003 0.006,0.007 0.009,0.0103 0.0755,0.0957 0.15384,0.19084 0.23048,0.28629 0.11591,0.14363 0.23121,0.28769 0.34933,0.42943 0.39613,0.47956 0.80339,0.94976 1.22163,1.40973 0.20578,0.22629 0.41431,0.45036 0.62529,0.6718 0.003,0.004 0.007,0.007 0.0103,0.0109 0.21479,0.22468 0.43182,0.44733 0.65164,0.66714 0.21981,0.2198 0.44226,0.43655 0.66714,0.65112 0.22168,0.21177 0.4461,0.42047 0.67283,0.62684 0.003,0.003 0.007,0.006 0.009,0.009 0.45997,0.41826 0.93017,0.82604 1.40973,1.22215 0.14573,0.12156 0.29399,0.2395 0.44183,0.35863 0.0903,0.0725 0.1802698,0.14664 0.2707898,0.21808 0.005,0.004 0.009,0.008 0.0145,0.0114 0.0884,0.0697 0.17747,0.13643 0.26613,0.20515 0.11614,0.0901 0.23176,0.18084 0.3483,0.26924 4.487471,3.379 9.81807048,5.7015 15.2047605,6.92826 2.30121,0.49305 4.7093497,0.8146 7.2434797,0.9865 0.296,0.013 0.59122,0.024 0.88522,0.03 v 0.0243 c 0.1666,0.009 0.33253,0.0181 0.50023,0.0258 l -10e-4,-5.3e-4 c 0.27614,0 0.49971,-0.22357 0.49971,-0.49971 v -5.3e-4 l -0.49971,-0.49971 h -10e-4 -5.3e-4 c -3.48491,-0.0269 -7.1224697,-0.56362 -10.6778997,-1.59267 -4.25387002,-1.16783 -8.1397695,-2.99872 -11.8096105,-5.64926 -0.003,-0.002 -0.006,-0.005 -0.01,-0.007 -0.66607,-0.4764 -1.31439,-0.97636 -1.94355,-1.49862 -0.0168,-0.0139 -0.0339,-0.0269 -0.0506,-0.0408 h -5.3e-4 c -0.0442,-0.0371 -0.0779,-0.0878 -0.10181,-0.15245 -0.0217,-0.0585 -0.0342,-0.13019 -0.0403,-0.20929 -8e-4,-0.008 -0.003,-0.014 -0.003,-0.0222 -0.004,-0.0597 -0.003,-0.12452 0.002,-0.1943 0.004,-0.0696 0.0119,-0.14355 0.0233,-0.22221 0.0569,-0.3935 0.1998574,-0.89553 0.3948074,-1.45262 0.15586,-0.44534 0.34514,-0.92582 0.55036,-1.41387 0.5133,-1.22066 1.12681,-2.48874 1.57096,-3.37499 0.35528,-0.70892 0.60203,-1.17357 0.60203,-1.17357 0,0 -0.11617,0.0619 -0.32091,0.16795 -0.20462,0.10605 -0.49792,0.25655 -0.85215,0.43408 h -5.2e-4 c -0.53163,0.26644 -1.20085,0.59433 -1.91462,0.92449 -0.7137774,0.33016 -1.4723574,0.66316 -2.1828074,0.94051 h -5.3e-4 c -0.35513,0.13862 -0.69851,0.26334 -1.01803,0.36691 -0.2131,0.0691 -0.41542,0.12864 -0.60409,0.17673 -0.18865,0.0481 -0.36353,0.0847 -0.5209,0.10749 -0.3934,0.0569 -0.67842,0.0281 -0.80098,-0.12041 -0.56497,-0.67779 -1.10233,-1.37936 -1.61386,-2.1001 -2.61571,-3.64466 -4.42754,-7.5029 -5.58519,-11.72383 -1.02739,-3.55283 -1.5633,-7.18696 -1.59008,-10.66912 z"
       inkscape:export-filename="C:\Users\derin\Desktop\WeaponIndic.png"
       inkscape:export-xdpi="90.7136"
       inkscape:export-ydpi="90.7136" />
    <path
       style="color:#000000;display:inline;fill:#ffffff;stroke-width:1;stroke-linecap:round;stroke-linejoin:bevel;-inkscape-stroke:none;paint-order:fill markers stroke"
       d="m 50.073322,185.95027 c -0.0577,-8e-4 -0.11723,5.2e-4 -0.1788,0.004 -0.18471,0.009 -0.38576,0.0344 -0.5979,0.0708 -0.28285,0.0485 -0.58549,0.11663 -0.89503,0.19171 -0.15477,0.0375 -0.31148,0.0768 -0.46819,0.11628 -0.36956,0.0931 -0.73794,0.18466 -1.08882,0.2589 -0.11955,1.28979 -0.51921,2.8585 0.008,3.49745 0.82555,0.99036 1.59527,2.02872 2.31252,3.10369 1.88828,2.79644 3.34087,5.71946 4.4204,8.82944 1.63384,4.54295 2.48492,9.30405 2.51974,13.82293 0,0.27614 0.22357,0.50022 0.49972,0.50022 -0.2759,2.7e-4 -0.49971,0.22372 -0.49972,0.49971 -0.0348,4.51384 -0.88377,9.26957 -2.51405,13.80795 -1.08119,3.11888 -2.53757,6.04958 -4.43177,8.8532 -0.71563,1.07189 -1.48299,2.10772 -2.30632,3.09542 -0.52749,0.63892 -0.12809,2.20767 -0.008,3.49746 0.0533,0.0113 0.10449,0.0206 0.15864,0.0326 0,0 5.3e-4,0 5.3e-4,0 0.15112,0.0339 0.30495,0.0708 0.46044,0.10904 0.31115,0.0765 0.62772,0.15846 0.93741,0.23357 0.15475,0.0375 0.30766,0.0729 0.45734,0.10542 0.67379,0.14623 1.2796,0.2256 1.67432,0.0935 0.0127,-0.004 0.0238,-0.011 0.0362,-0.0155 0.11452,-0.0438 0.21113,-0.10504 0.28267,-0.19172 0.53248,-0.64759 1.01509,-1.32483 1.4547,-2.02726 1.3176,-2.1248 2.26831,-4.57007 2.95589,-7.17114 1.62331,-6.35856 1.53099,-13.6447 1.84226,-20.42201 0,0 0,-5.3e-4 0,-5.3e-4 l -0.49971,-0.49971 0.49972,-0.50023 c -0.31108,-6.77155 -0.21967,-14.05063 -1.83865,-20.40547 -0.6845,-2.59432 -1.63017,-5.03422 -2.94039,-7.15615 -0.43361,-0.69568 -0.90971,-1.36656 -1.43402,-2.00866 -0.0137,-0.0166 -0.027,-0.0336 -0.0408,-0.0501 -0.0264,-0.032 -0.0552,-0.061 -0.0879,-0.0868 -0.13065,-0.10345 -0.30925,-0.15874 -0.52348,-0.1788 -0.0535,-0.005 -0.10919,-0.008 -0.16692,-0.009 z"
       id="path1484"
       inkscape:export-filename="C:\Users\derin\Desktop\WeaponIndic.png"
       inkscape:export-xdpi="90.7136"
       inkscape:export-ydpi="90.7136" />
    <path
       style="color:#000000;display:inline;fill:#ffffff;stroke-width:1;stroke-linecap:round;stroke-linejoin:bevel;-inkscape-stroke:none;paint-order:fill markers stroke"
       d="m -19.797859,185.95027 c -0.19984,-0.002 -0.37754,0.0177 -0.52555,0.0672 -0.0129,0.004 -0.0239,0.0108 -0.0362,0.0155 -0.11451,0.0438 -0.21112,0.10502 -0.28267,0.19172 -0.53249,0.64756 -1.01508,1.32482 -1.45469,2.02726 -1.31761,2.1248 -2.26832,4.57007 -2.9559,7.17114 -1.623309,6.35857 -1.530979,13.64472 -1.842259,20.42201 0,0 0,5.3e-4 0,5.3e-4 h 5.3e-4 l 0.49919,0.49971 -0.49919,0.49971 c 0.31103,6.77158 0.21915,14.05064 1.838129,20.40547 0.6845,2.59433 1.63017,5.03422 2.94039,7.15616 0.43361,0.69569 0.90971,1.36656 1.43402,2.00866 0.0137,0.0165 0.0271,0.0336 0.0408,0.0501 0.0264,0.032 0.0557,0.061 0.0884,0.0868 0.13066,0.10344 0.30925,0.15873 0.52348,0.1788 0.0535,0.005 0.10922,0.008 0.16692,0.009 0.0577,8e-4 0.11722,-7.9e-4 0.1788,-0.004 0.18471,-0.009 0.38576,-0.0344 0.59789,-0.0708 0.28286,-0.0485 0.5855,-0.11663 0.89504,-0.19172 0.15478,-0.0375 0.31148,-0.0768 0.46819,-0.11627 0.36956,-0.0931 0.73794,-0.18466 1.08882,-0.2589 0.11955,-1.28979 0.51892,-2.8585 -0.008,-3.49746 -0.82554,-0.99035 -1.59528,-2.02872 -2.31252,-3.10369 -1.88828,-2.79644 -3.34086,-5.71945 -4.4204,-8.82943 -1.63384,-4.54296 -2.484919,-9.30405 -2.519749,-13.82293 0,-0.27544 -0.22247,-0.4991 -0.49764,-0.50023 0.27468,-0.002 0.49763,-0.2241 0.49764,-0.49919 0.0348,-4.51384 0.883779,-9.26956 2.514059,-13.80795 1.08119,-3.11886 2.53757,-6.04959 4.43177,-8.8532 0.71562,-1.07189 1.48298,-2.10773 2.30632,-3.09542 0.52745,-0.63896 0.12758,-2.20767 0.008,-3.49746 -0.0533,-0.0113 -0.10445,-0.0205 -0.15864,-0.0326 0,0 -5.3e-4,0 -5.3e-4,0 -0.15109,-0.0339 -0.30494,-0.0708 -0.46044,-0.10904 -0.31115,-0.0765 -0.62772,-0.15846 -0.93741,-0.23357 -0.15478,-0.0375 -0.30766,-0.0729 -0.45734,-0.10542 -0.42111,-0.0914 -0.8157,-0.15686 -1.14876,-0.16072 z"
       id="path1482"
       inkscape:export-filename="C:\Users\derin\Desktop\WeaponIndic.png"
       inkscape:export-xdpi="90.7136"
       inkscape:export-ydpi="90.7136" />
    <path
       style="color:#000000;display:inline;fill:#ffffff;stroke-width:1;stroke-linecap:round;stroke-linejoin:bevel;-inkscape-stroke:none;paint-order:fill markers stroke"
       d="m -15.357819,184.58601 c -0.36869,0.007 -0.68298,0.0688 -0.90072,0.22686 -0.0327,0.0238 -0.0627,0.0493 -0.0909,0.0775 -0.22559,0.22558 -0.30348,0.59894 -0.30593,1.04748 -0.001,0.20522 0.0143,0.42759 0.0377,0.65732 0.045,0.009 0.09,0.0186 0.13436,0.0274 0.0437,0.009 0.0894,0.0195 0.13229,0.0274 0.28738,0.0526 0.55646,0.0869 0.79479,0.0904 0.11909,0.002 0.23017,-0.004 0.33228,-0.0196 0.20422,-0.0305 0.37149,-0.0981 0.48885,-0.21549 0.0293,-0.0293 0.0558,-0.0613 0.0791,-0.0966 0,0 0,-5.3e-4 0,-5.3e-4 0.008,-0.0123 0.0138,-0.0268 0.0212,-0.0398 0.0351,-0.0616 0.0652,-0.12944 0.0858,-0.20567 0.10223,-0.37928 0.0325,-0.93055 -0.0956,-1.53996 -0.25098,-0.0256 -0.49193,-0.041 -0.71314,-0.0367 z"
       id="path1480"
       inkscape:export-filename="C:\Users\derin\Desktop\WeaponIndic.png"
       inkscape:export-xdpi="90.7136"
       inkscape:export-ydpi="90.7136" />
    <path
       style="color:#000000;display:inline;fill:#ffffff;stroke-width:1;stroke-linecap:round;stroke-linejoin:bevel;-inkscape-stroke:none;paint-order:fill markers stroke"
       d="m 45.512882,184.58441 c -0.20522,-0.001 -0.4276,0.0148 -0.65733,0.0382 -0.01,0.0451 -0.0186,0.09 -0.0274,0.13436 -0.009,0.0437 -0.0195,0.0894 -0.0274,0.13229 -0.0526,0.28738 -0.0869,0.55646 -0.0904,0.79478 -0.002,0.1191 0.004,0.23017 0.0191,0.33228 0.0305,0.20422 0.0986,0.37151 0.21601,0.48886 0.0293,0.0293 0.0608,0.0558 0.0961,0.0791 1.1e-4,7e-5 10e-4,-8e-5 10e-4,0 0.0123,0.008 0.0268,0.0138 0.0398,0.0212 0.0616,0.0351 0.12943,0.0647 0.20567,0.0853 0.37929,0.10224 0.93055,0.0325 1.53996,-0.0956 0.0684,-0.66927 0.0627,-1.26546 -0.19017,-1.61386 -0.0237,-0.0327 -0.0493,-0.0628 -0.0775,-0.091 -0.22558,-0.22559 -0.59894,-0.30347 -1.04748,-0.30592 z"
       id="path1478"
       inkscape:export-filename="C:\Users\derin\Desktop\WeaponIndic.png"
       inkscape:export-xdpi="90.7136"
       inkscape:export-ydpi="90.7136" />
    <path
       style="color:#000000;display:inline;fill:#ffffff;stroke-width:1;stroke-linecap:round;stroke-linejoin:bevel;-inkscape-stroke:none;paint-order:fill markers stroke"
       d="m 14.605221,174.34524 c -6.7715897,0.31103 -14.05064972,0.21915 -20.4054802,1.83813 -2.59433,0.6845 -5.0342198,1.63018 -7.1561498,2.94039 -0.69569,0.43361 -1.36656,0.90971 -2.00866,1.43402 -0.0165,0.0137 -0.0336,0.0271 -0.0501,0.0408 -0.032,0.0264 -0.061,0.0557 -0.0868,0.0884 -0.10345,0.13065 -0.15873,0.30925 -0.1788,0.52348 -0.005,0.0535 -0.008,0.10921 -0.009,0.16692 h -5.3e-4 c -8e-4,0.0577 6.9e-4,0.11721 0.004,0.1788 0.009,0.1847 0.0344,0.38576 0.0708,0.59789 0.0485,0.28286 0.11663,0.5855 0.19172,0.89504 0.0375,0.15477 0.0768,0.31148 0.11627,0.46819 0.0931,0.36956 0.18466,0.73793 0.2589,1.08882 1.28979,0.11955 2.8585,0.51921 3.49746,-0.008 0.99035,-0.82555 2.0287198,-1.59527 3.1036798,-2.31252 2.79645,-1.88828 5.7194605,-3.34086 8.82944048,-4.4204 4.54296002,-1.63384 9.30404972,-2.48492 13.82292972,-2.51974 0.27614,0 0.50023,-0.22358 0.50023,-0.49972 2.6e-4,0.2759 0.22373,0.4997 0.49971,0.49972 4.513841,0.0348 9.269561,0.88378 13.807941,2.51405 3.11886,1.08119 6.04959,2.53757 8.85321,4.43177 1.07188,0.71562 2.10773,1.48299 3.09542,2.30632 0.63896,0.52745 2.20766,0.12779 3.49746,0.008 0.0113,-0.0533 0.0204,-0.10451 0.0326,-0.15864 0,0 0,-5.3e-4 0,-5.3e-4 0.0338,-0.15113 0.0708,-0.30494 0.10904,-0.46044 0.0765,-0.31115 0.15846,-0.62771 0.23358,-0.93741 0.0375,-0.15477 0.0729,-0.30766 0.10542,-0.45734 0.14622,-0.67379 0.22555,-1.27959 0.0935,-1.67431 -0.004,-0.0129 -0.0107,-0.0238 -0.0155,-0.0362 -0.0438,-0.11451 -0.10503,-0.21112 -0.19172,-0.28267 -0.64757,-0.53249 -1.32483,-1.01507 -2.02727,-1.45469 -2.1248,-1.31761 -4.57007,-2.26831 -7.17114,-2.95589 -6.35856,-1.62331 -13.64471,-1.53099 -20.422001,-1.84227 0,0 -5.3e-4,0 -5.3e-4,0 l -0.49971,0.49971 z"
       id="path7084"
       inkscape:export-filename="C:\Users\derin\Desktop\WeaponIndic.png"
       inkscape:export-xdpi="90.7136"
       inkscape:export-ydpi="90.7136" />
    <rect
       style="fill:none;stroke:#c6c6c6;stroke-width:3;stroke-linecap:round;stroke-linejoin:bevel;stroke-miterlimit:4;stroke-dasharray:none;paint-order:markers stroke fill"
       id="rect895"
       width="160"
       height="50"
       x="98.852982"
       y="160.17896"
       rx="19.626978"
       ry="27.424328"
       inkscape:export-filename="C:\Users\derin\Desktop\work\Labratory\HealtBar.png"
       inkscape:export-xdpi="79.472397"
       inkscape:export-ydpi="79.472397" />
    <path
       id="rect1535"
       style="fill:#c6c6c6;stroke-width:3;stroke-linecap:round;stroke-linejoin:bevel;paint-order:markers stroke fill"
       d="m 128.98863,179.90431 c 5.64816,0 3e-5,-19.72535 12.66216,-19.72535 h -12.66213 c 0,0 -21.01736,0 -10.5087,0 10.50867,0 4.8605,19.72535 10.50867,19.72535 z"
       sodipodi:nodetypes="zsszz"
       inkscape:export-filename="C:\Users\derin\Desktop\work\Labratory\HealtBar.png"
       inkscape:export-xdpi="79.472397"
       inkscape:export-ydpi="79.472397" />
    <path
       id="path4295"
       style="fill:#c6c6c6;stroke-width:3;stroke-linecap:round;stroke-linejoin:bevel;paint-order:markers stroke fill"
       d="m 162.28183,179.90431 c 5.64816,0 3e-5,-19.72535 12.66217,-19.72535 h -12.66214 c 0,0 -21.01736,0 -10.5087,0 10.50867,0 4.8605,19.72535 10.50867,19.72535 z"
       sodipodi:nodetypes="zsszz"
       inkscape:export-filename="C:\Users\derin\Desktop\work\Labratory\HealtBar.png"
       inkscape:export-xdpi="79.472397"
       inkscape:export-ydpi="79.472397" />
    <path
       id="path4297"
       style="fill:#c6c6c6;stroke-width:3;stroke-linecap:round;stroke-linejoin:bevel;paint-order:markers stroke fill"
       d="m 197.59796,179.90431 c 5.64816,0 3e-5,-19.72535 12.66217,-19.72535 h -12.66214 c 0,0 -21.01736,0 -10.5087,0 10.50867,0 4.8605,19.72535 10.50867,19.72535 z"
       sodipodi:nodetypes="zsszz"
       inkscape:export-filename="C:\Users\derin\Desktop\work\Labratory\HealtBar.png"
       inkscape:export-xdpi="79.472397"
       inkscape:export-ydpi="79.472397" />
    <path
       id="path4299"
       style="fill:#c6c6c6;stroke-width:3;stroke-linecap:round;stroke-linejoin:bevel;paint-order:markers stroke fill"
       d="m 228.01806,179.90431 c 5.64816,0 3e-5,-19.72535 12.66217,-19.72535 h -12.66214 c 0,0 -21.01736,0 -10.5087,0 10.50867,0 4.8605,19.72535 10.50867,19.72535 z"
       sodipodi:nodetypes="zsszz"
       inkscape:export-filename="C:\Users\derin\Desktop\work\Labratory\HealtBar.png"
       inkscape:export-xdpi="79.472397"
       inkscape:export-ydpi="79.472397" />
  </g>
</svg>
